<svg width="80" height="81" viewBox="0 0 80 81" fill="none" xmlns="http://www.w3.org/2000/svg">
<g clip-path="url(#clip0_40_129)">
<path d="M40 80.5C62.0914 80.5 80 62.5914 80 40.5C80 18.4086 62.0914 0.5 40 0.5C17.9086 0.5 0 18.4086 0 40.5C0 62.5914 17.9086 80.5 40 80.5Z" fill="#FB8300"/>
<path d="M52.4184 37.6871L35.6088 26.1605C34.8541 25.6116 34.0308 25.3372 33.4133 25.3372C32.1097 25.3372 31.355 26.3663 31.355 28.013V52.9186C31.355 54.6339 32.1097 55.5945 33.3447 55.5945C34.0308 55.5945 34.7855 55.32 35.5402 54.7711L52.3498 43.2445C53.4476 42.4898 54.0651 41.5293 54.0651 40.4315C54.0651 39.3337 53.5162 38.4418 52.4184 37.6871Z" fill="white"/>
</g>
<defs>
<clipPath id="clip0_40_129">
<rect width="80" height="80" fill="white" transform="translate(0 0.5)"/>
</clipPath>
</defs>
</svg>
